<svg width="45" height="46" viewBox="0 0 45 46" fill="none" xmlns="http://www.w3.org/2000/svg">
<path d="M44.5731 42.6225L32.9548 31.2906C35.9973 28.0141 37.8666 23.681 37.8666 18.9128C37.8652 8.71285 29.3891 0.445312 18.9326 0.445312C8.47605 0.445312 0 8.71285 0 18.9128C0 29.1128 8.47605 37.3803 18.9326 37.3803C23.4505 37.3803 27.5943 35.8314 30.8492 33.2563L42.5125 44.6329C43.0808 45.1878 44.0035 45.1878 44.5718 44.6329C45.1414 44.0781 45.1414 43.1774 44.5731 42.6225ZM18.9326 34.539C10.0852 34.539 2.91304 27.5429 2.91304 18.9128C2.91304 10.2827 10.0852 3.28665 18.9326 3.28665C27.78 3.28665 34.9521 10.2827 34.9521 18.9128C34.9521 27.5429 27.78 34.539 18.9326 34.539Z" fill="#253a5c"/>
</svg>
